# Blender v2.79 (sub 0) OBJ File: ''
# www.blender.org
mtllib OedoCastle.mtl
o Shape_IndexedFaceSet.147
v 2.461583 0.046981 3.007462
v -3.059355 0.046982 3.007463
v -0.298887 -0.240385 -0.397406
v -3.059356 0.046986 -3.802276
v 2.461582 0.046983 -3.802276
v 2.069718 1.309653 2.519808
v -0.298886 1.065830 -0.397406
v 2.069718 1.309655 -3.314620
v -2.667491 1.309656 -3.314620
v -2.667490 1.309654 2.519809
v 2.862155 -1.355024 3.495117
v -3.459929 -1.355023 3.495117
v -0.298887 -1.685927 -0.397407
v -3.459929 -1.355018 -4.289927
v 2.862155 -1.355022 -4.289928
v 3.254020 -2.817985 3.982768
v -3.851792 -2.817983 3.982769
v -0.298887 -3.192430 -0.397407
v -3.851794 -2.817979 -4.777584
v 3.254019 -2.817982 -4.777584
v 1.669145 2.607165 2.032155
v -2.266917 2.607165 2.032155
v -0.298886 2.398171 -0.397406
v -2.266918 2.607166 -2.826967
v 1.669145 2.607166 -2.826968
v -0.298886 4.148499 0.691108
v -0.211805 4.148499 1.030723
v -0.385967 4.148499 1.030723
v -0.298886 4.557781 1.030723
v -0.298886 4.270412 0.708524
v -0.298886 4.296535 0.847853
v -0.298886 4.549070 0.873977
v 0.711254 2.877115 1.030723
v 1.050870 2.877115 1.030723
v -0.298886 3.826298 1.030723
v -0.298886 4.148499 1.030723
v -1.648642 2.877115 1.030723
v -1.309026 2.877115 1.030723
v 2.069718 1.309654 0.699815
v 2.069718 1.562193 0.273119
v 2.069718 1.753771 0.334075
v 0.580633 2.999028 1.013307
v -0.298886 3.826298 1.013307
v -1.178405 2.999028 1.013307
v 2.069718 1.562194 -1.067931
v 2.069718 1.753772 -1.128887
v 2.069718 1.309654 1.074263
v 2.069718 1.309655 -1.869075
v -1.126156 1.309654 2.493685
v -0.786540 1.579609 2.493684
v -0.847496 1.753771 2.493685
v 2.069718 1.309655 -1.494627
v 0.188768 1.579609 2.493684
v 0.249724 1.753771 2.493684
v -1.396108 1.309654 2.493685
v 0.528384 1.309653 2.493684
v 0.798335 1.309653 2.493684
v 0.528384 1.309653 2.476268
v 0.110395 1.631858 2.476268
v -1.126156 1.309654 2.476268
v -0.708167 1.631858 2.476268
v 2.052302 1.309655 -1.494627
v 2.052302 1.562194 -1.067931
v 2.052302 1.309654 0.699816
v 2.052302 1.562193 0.273118
v 1.590772 -1.137320 2.650431
v 1.860723 -1.137320 2.650431
v 0.780918 -0.371007 2.650431
v 0.780918 -0.118474 2.650431
v -0.298887 -1.137318 2.650431
v -0.028935 -1.137320 2.650431
v -1.378691 -0.118474 2.650431
v -1.378691 -0.371006 2.650431
v 1.486274 -1.032824 2.633013
v 0.780918 -0.371007 2.633014
v 0.066854 -1.032824 2.633013
v -2.188545 -1.137318 2.650431
v -0.568838 -1.137318 2.650431
v -2.458497 -1.137318 2.650431
v 2.478998 -1.137319 -1.477210
v 2.478999 -0.118474 -0.397406
v 2.478999 -0.371006 -0.397406
v -0.664627 -1.032824 2.633013
v -1.378691 -0.371006 2.633014
v -2.084048 -1.032822 2.633013
v 2.478999 -1.137320 0.412447
v 2.478998 -1.137320 -1.207261
v 2.461582 -1.137320 -1.224677
v 2.461582 -0.371006 -0.397406
v 2.461582 -1.137320 0.429863
v 2.478999 -1.137320 0.682398
v 2.748950 -2.669943 -3.166584
v 2.748949 -2.669943 -3.445244
v 2.748950 -1.903632 -2.356730
v 2.748950 -1.651097 -2.356730
v 2.748950 -2.669944 -1.276926
v 2.748950 -2.669944 -1.546877
v 1.050870 -2.608989 3.408035
v -0.298887 -1.346314 3.408034
v -0.298887 -1.659804 3.408035
v 2.731533 -2.565446 -3.070795
v 2.731533 -1.903632 -2.356730
v 2.731533 -2.565447 -1.651374
v -1.309027 -2.608989 3.408035
v 0.711254 -2.608989 3.408035
v 0.580632 -2.487074 3.381911
v -0.298887 -1.659804 3.381911
v -1.178406 -2.487074 3.381911
v -1.648643 -2.608989 3.408035
v 2.748950 -2.669944 0.752063
v 2.748950 -2.669944 0.482112
v 2.748950 -1.903633 1.561916
v 2.748950 -1.651098 1.561916
v 2.748950 -2.669944 2.650429
v 2.748950 -2.669944 2.371770
v 2.731533 -2.565447 0.856560
v 2.731533 -1.903633 1.561916
v 2.731533 -2.565447 2.275981
v 1.590772 -0.797706 1.927657
v 1.590772 0.046981 1.927658
v -2.188545 -0.797705 1.927657
v -2.188545 0.046982 1.927658
v 1.860723 -2.199708 2.267273
v 1.860723 -1.355024 2.267273
v -2.458497 -2.199708 2.267273
v -2.458497 -1.355023 2.267273
v 1.590771 -0.797705 -2.722470
v 1.590772 0.046983 -2.722470
v 1.860723 -2.199706 -3.062087
v 1.860723 -1.355022 -3.062086
v 2.130675 -3.662669 2.598181
v 2.130675 -2.817982 2.598181
v -2.728448 -3.662669 2.598181
v -2.728448 -2.817982 2.598181
v 1.512399 0.464971 -1.215968
v 1.512400 1.309654 -1.215968
v 1.512400 0.464971 0.421156
v 1.512400 1.309654 0.421156
v 1.050870 1.762476 1.265842
v 1.050870 2.607165 1.265842
v -1.648642 1.762477 1.265842
v -1.648642 2.607165 1.265842
v 1.320821 0.464971 1.596750
v 1.320821 1.309654 1.596750
v -1.918594 0.464973 1.596750
v -1.918593 1.309654 1.596750
v 0.310681 0.464971 1.831869
v 0.310681 1.309654 1.831869
v -0.908454 0.464973 1.831869
v -0.908454 1.309654 1.831869
v -0.908454 0.464974 -2.626681
v -0.908454 1.309656 -2.626680
v 0.310681 0.464971 -2.626681
v 0.310681 1.309655 -2.626681
v 1.050870 1.762477 -2.060654
v 1.050870 2.607166 -2.060654
v -2.110172 0.464973 0.421156
v -2.110172 1.309655 0.421156
v -2.110173 0.464974 -1.215968
v -2.110172 1.309655 -1.215968
v 1.320821 0.464971 -2.391562
v 1.320821 1.309655 -2.391561
v -2.728449 -3.662668 -3.392995
v -2.728449 -2.817981 -3.392995
v 2.130674 -3.662668 -3.392995
v 2.130675 -2.817981 -3.392995
v -2.667490 1.753772 0.334075
v -2.667491 1.753772 -1.128886
v -2.667491 1.309656 -1.494627
v -2.667491 1.562195 -1.067931
v -2.667491 1.309655 1.074263
v -2.667490 1.562194 0.273119
v -2.667490 1.309655 0.699816
v -0.298886 2.354630 -0.397406
v -0.298886 3.477977 -0.397406
v 0.780918 -0.371004 -3.445244
v 1.590771 -1.137318 -3.445244
v 0.780918 -0.118472 -3.445244
v 1.860723 -1.137318 -3.445244
v -0.028935 -1.137317 -3.445244
v -1.378691 -0.371004 -3.445244
v -0.568838 -1.137317 -3.445244
v -1.378691 -0.118472 -3.445244
v -0.298887 -1.137317 -3.445244
v -2.188545 -1.137317 -3.445242
v -3.346723 -1.137318 0.682398
v -3.346723 -0.118473 -0.397406
v -3.346723 -0.371006 -0.397406
v -3.346723 -1.137318 -1.207261
v -3.346723 -1.137318 0.412447
v -0.298887 -1.659803 -4.202847
v 0.711253 -2.608987 -4.202847
v -0.298887 -1.346311 -4.202847
v 1.050869 -2.608987 -4.202847
v -1.309027 -2.608987 -4.202847
v -0.298886 1.266116 -0.397406
v -3.346724 -2.669943 -1.276926
v -3.346724 -1.651095 -2.356730
v -3.346724 -1.903631 -2.356730
v -3.346724 -2.669942 -3.166584
v -3.346724 -2.669943 -1.546876
v -3.346723 -2.669943 2.650430
v -3.346724 -1.651096 1.561917
v -3.346724 -1.903632 1.561917
v -3.346723 -2.669943 0.752063
v -3.346723 -2.669943 2.371770
v -0.298886 0.038275 -0.397406
v -0.298887 -1.250527 -0.397407
v -0.847497 1.753772 -3.288496
v 0.249724 1.753772 -3.288496
v 0.798335 1.309655 -3.288496
v 0.528383 1.309655 -3.288496
v 0.188768 1.579610 -3.288496
v -0.786540 1.579610 -3.288496
v -1.126156 1.309656 -3.288496
v -0.298886 3.826298 -1.825535
v 0.711254 2.877115 -1.825535
v -0.298886 4.148499 -1.825535
v 1.050870 2.877115 -1.825535
v -1.309026 2.877115 -1.825535
vt 10.000000 0.000000
vt 10.000000 1.000000
vt 0.000000 0.000000
vt 0.000000 1.000000
vt 10.000000 0.000000
vt 10.000000 1.000000
vt 0.000000 0.000000
vt 0.000000 1.000000
vt 0.000000 0.000000
vt 0.000000 1.000000
vt 12.000000 0.000000
vt 12.000000 1.000000
vt 0.000000 0.000000
vt 0.000000 1.000000
vt 12.000000 0.000000
vt 12.000000 1.000000
vt 12.000000 0.000000
vt 12.000000 1.000000
vt 0.000000 0.000000
vt 0.000000 1.000000
vt 0.000000 0.000000
vt 0.000000 1.000000
vt 4.000000 0.000000
vt 4.000000 1.000000
vt 6.000000 0.000000
vt 6.000000 1.000000
vt 0.000000 0.000000
vt 0.000000 1.000000
vt 8.000000 0.000000
vt 8.000000 1.000000
vt 0.000000 0.000000
vt 0.000000 1.000000
vt 2.000000 0.000000
vt 2.000000 1.000000
vt 0.000000 0.000000
vt 0.000000 1.000000
vt 6.000000 0.000000
vt 6.000000 1.000000
vt 0.000000 0.000000
vt 0.000000 1.000000
vt 0.000000 0.000000
vt 0.000000 1.000000
vt 6.000000 0.000000
vt 6.000000 1.000000
vt 0.000000 0.000000
vt 0.000000 1.000000
vt 8.000000 0.000000
vt 8.000000 1.000000
vt 8.000000 0.000000
vt 8.000000 1.000000
vt 0.000000 0.000000
vt 0.000000 1.000000
vt 0.000000 0.000000
vt 0.000000 1.000000
vt 8.000000 0.000000
vt 8.000000 1.000000
vt 0.000000 0.000000
vt 0.000000 1.000000
vt 9.000000 0.000000
vt 9.000000 1.000000
vt 14.000000 0.000000
vt 14.000000 1.000000
vt 0.000000 0.000000
vt 0.000000 1.000000
vt 0.000000 0.000000
vt 0.000000 1.000000
vt 14.000000 0.000000
vt 14.000000 1.000000
vt 0.734400 0.500000
vt 1.000000 0.500000
vt 0.468800 0.500000
vt 0.734400 1.000000
vt 0.003900 0.760700
vt 0.472700 0.760700
vt 0.002900 0.500000
vt 0.989300 0.503400
vt 0.985400 1.000000
vt 0.471700 0.998000
vt 0.989300 0.503400
vt 0.349600 0.181200
vt 0.099600 0.003400
vt 1.755400 0.178700
vt 1.973600 0.000000
vt 1.899900 0.003400
vt 1.649900 0.181200
vt 0.025900 0.000000
vt 0.244600 0.178700
vt 0.250000 0.209500
vt 0.647000 0.214800
vt 0.681200 0.000000
vt 2.000000 0.000000
vt 1.000000 1.000000
vt 0.000000 0.000000
vt 0.543000 0.213900
vt 1.456500 0.213900
vt 1.500000 0.000000
vt 0.000000 0.001500
vt 2.000000 0.002000
vt 1.318800 0.000000
vt 1.353000 0.214800
vt 0.500000 0.000000
vt 1.791500 0.191900
vt 1.373000 0.199700
vt 1.311000 0.002900
vt 1.750000 0.210000
vt 1.442900 0.211400
vt 0.556600 0.211400
vt 0.500000 0.000000
vt 2.000000 0.000000
vt 1.500000 0.000000
vt 0.224600 0.191900
vt 0.016600 0.000000
vt 0.643100 0.199700
vt 0.705100 0.002900
vt 2.000000 0.000000
vt 1.499500 0.500000
vt 0.000000 0.000000
vt 0.499500 0.499500
vt 2.000000 0.000000
vt 1.608400 0.399900
vt 0.000000 0.000000
vt 0.391100 0.399900
vt 0.349600 0.181200
vt 0.099600 0.003400
vt 1.755400 0.178700
vt 1.973600 0.000000
vt 1.899900 0.003400
vt 1.649900 0.181200
vt 0.025900 0.000000
vt 0.244600 0.178700
vt 0.099600 0.003400
vt 1.973600 0.000000
vt 1.755400 0.178700
vt 2.000000 0.000000
vt 1.000000 1.000000
vt 0.000000 0.000000
vt 1.649900 0.181200
vt 0.244600 0.178700
vt 0.025900 0.000000
vt 0.349600 0.181200
vt 1.899900 0.003400
vt 0.099600 0.003400
vt 1.973600 0.000000
vt 1.755400 0.178700
vt 2.000000 0.000000
vt 1.000000 1.000000
vt 0.000000 0.000000
vt 1.649900 0.181200
vt 0.244600 0.178700
vt 0.025900 0.000000
vt 0.349600 0.181200
vt 2.000000 0.000000
vt 1.000000 1.000000
vt 0.000000 0.000000
vt 1.899900 0.003400
vt 0.349600 0.181200
vt 0.099600 0.003400
vt 1.755400 0.178700
vt 1.973600 0.000000
vt 1.899900 0.003400
vt 1.649900 0.181200
vt 0.025900 0.000000
vt 0.244600 0.178700
vt 0.099600 0.003400
vt 1.973600 0.000000
vt 1.755400 0.178700
vt 2.000000 0.000000
vt 1.000000 1.000000
vt 0.000000 0.000000
vt 1.649900 0.181200
vt 0.244600 0.178700
vt 0.025900 0.000000
vt 0.349600 0.181200
vt 2.000000 0.000000
vt 1.000000 1.000000
vt 0.000000 0.000000
vt 1.899900 0.003400
vt 0.349600 0.181200
vt 0.099600 0.003400
vt 1.755400 0.178700
vt 1.973600 0.000000
vt 1.899900 0.003400
vt 1.649900 0.181200
vt 0.025900 0.000000
vt 0.244600 0.178700
vt 2.000000 0.000000
vt 1.000000 1.000000
vt 0.000000 0.000000
vt 0.000000 12.750000
vt 11.000000 12.750000
vt 0.000000 4.250000
vt 11.000000 4.250000
vt 0.000000 2.125000
vt 11.000000 2.125000
vt 0.000000 4.619100
vt 11.000000 4.619100
vt 0.000000 17.000000
vt 11.000000 17.000000
vt 11.000000 12.379900
vt 0.000000 12.379900
vt 11.000000 14.875000
vt 0.000000 14.875000
vt 11.000000 0.574200
vt 5.500000 3.000000
vt 0.000000 0.574200
vt 11.000000 0.574200
vt 0.000000 0.574200
vt 5.500000 3.000000
vt 12.000000 2.250000
vt 0.000000 2.250000
vt 12.000000 0.000000
vt 0.000000 0.000000
vt 12.000000 3.000000
vt 12.000000 0.000000
vt 0.000000 3.000000
vt 0.000000 0.000000
vt 0.000000 0.000000
vt 12.000000 0.000000
vt 12.000000 2.250000
vt 0.000000 2.250000
vt 12.000000 0.000000
vt 0.000000 0.000000
vt 12.000000 3.000000
vt 12.000000 0.000000
vt 0.000000 3.000000
vt 0.000000 0.000000
vt 0.000000 0.000000
vt 12.000000 0.000000
vt 12.000000 0.000000
vt 12.000000 3.000000
vt 0.000000 0.000000
vt 0.000000 3.000000
vt 12.000000 2.250000
vt 0.000000 2.250000
vt 12.000000 0.000000
vt 0.000000 0.000000
vt 0.000000 0.000000
vt 12.000000 0.000000
vt 12.000000 2.250000
vt 0.000000 2.250000
vt 12.000000 0.000000
vt 0.000000 0.000000
vt 12.000000 3.000000
vt 12.000000 0.000000
vt 0.000000 3.000000
vt 0.000000 0.000000
vt 0.000000 0.000000
vt 12.000000 0.000000
vt 13.000000 0.574200
vt 0.000000 0.574200
vt 6.500000 3.000000
vt 13.000000 0.765600
vt 6.500000 4.000000
vt 0.000000 0.765600
vt 14.000000 0.000000
vt 14.000000 3.000000
vt 0.000000 0.000000
vt 0.000000 3.000000
vt 14.000000 2.250000
vt 0.000000 2.250000
vt 14.000000 0.000000
vt 0.000000 0.000000
vt 0.000000 0.000000
vt 14.000000 0.000000
vt 14.000000 0.000000
vt 14.000000 3.000000
vt 0.000000 0.000000
vt 0.000000 3.000000
vt 14.000000 2.250000
vt 0.000000 2.250000
vt 14.000000 0.000000
vt 0.000000 0.000000
vt 0.000000 0.000000
vt 14.000000 0.000000
vt 14.000000 0.765600
vt 7.000000 4.000000
vt 0.000000 0.765600
vt 15.000000 0.765600
vt 0.000000 0.765600
vt 7.500000 4.000000
vt 16.000000 0.765600
vt 8.000000 4.000000
vt 0.000000 0.765600
vt 18.000000 0.765600
vt 0.000000 0.765600
vt 9.000000 4.000000
vt 20.000000 0.765600
vt 0.000000 0.765600
vt 10.000000 4.000000
vt 1.250000 0.000000
vt 1.250000 14.000000
vt 3.750000 0.000000
vt 3.750000 14.000000
vt 5.000000 14.000000
vt 5.000000 0.000000
vt 4.375000 0.000000
vt 4.375000 14.000000
vt 3.607400 0.000000
vt 3.607400 14.000000
vt 1.391600 14.000000
vt 1.391600 0.000000
vt 0.625000 14.000000
vt 0.625000 0.000000
vt 7.000000 2.250000
vt 0.000000 2.250000
vt 7.000000 0.000000
vt 0.000000 0.000000
vt 7.000000 3.000000
vt 7.000000 0.000000
vt 0.000000 3.000000
vt 0.000000 0.000000
vt 0.000000 0.000000
vt 7.000000 0.000000
vt 9.000000 0.574200
vt 4.500000 3.000000
vt 0.000000 0.574200
vt 13.000000 3.999500
vt 0.000000 3.999500
vt 6.500000 0.169900
vt 0.000000 3.999500
vt 13.000000 3.999500
vt 13.000000 3.999500
vt 6.500000 0.169900
vt 0.000000 3.999500
vt 0.000000 3.999500
vt 13.000000 3.999500
vt 14.000000 3.999500
vt 0.000000 3.999500
vt 7.000000 0.169900
vt 0.000000 3.999500
vt 14.000000 3.999500
vt 15.000000 3.999500
vt 7.500000 0.169900
vt 0.000000 3.999500
vt 15.000000 3.999500
vt 16.000000 3.999500
vt 0.000000 3.999500
vt 8.000000 0.169900
vt 0.000000 3.999500
vt 16.000000 3.999500
vt 18.000000 3.999500
vt 9.000000 0.169900
vt 0.000000 3.999500
vt 18.000000 3.999500
vt 20.000000 3.999500
vt 10.000000 0.169900
vt 0.000000 3.999500
vt 20.000000 3.999500
vt 9.000000 3.999500
vt 0.000000 3.999500
vt 4.500000 0.169900
vt 0.000000 3.999500
vt 9.000000 3.999500
vt 11.000000 3.999500
vt 5.500000 0.169900
vt 0.000000 3.999500
vt 11.000000 3.999500
vt 11.000000 3.999500
vt 0.000000 3.999500
vt 5.500000 0.169900
vt 11.000000 3.999500
vn 0.0000 -0.0000 1.0000
vn 1.0000 -0.0000 -0.0000
vn -1.0000 0.0000 0.0000
vn 0.0000 0.0000 -1.0000
vn 0.0000 -1.0000 0.0000
vn 0.9368 0.2543 -0.2402
vn 0.9375 0.1995 -0.2850
vn -0.9368 0.2543 -0.2402
vn -0.9375 0.1995 -0.2850
vn 0.0000 1.0000 0.0000
vn -0.0000 -0.8606 0.5093
vn 0.0000 0.8575 0.5145
vn -0.0000 -0.8606 -0.5093
vn 0.0000 0.9414 0.3372
vn 0.4046 0.9145 0.0000
vn -0.6873 -0.7264 -0.0000
vn 0.6863 0.7273 0.0000
vn 0.6873 -0.7264 -0.0000
vn 0.0000 0.7273 0.6863
vn -0.0000 -0.7264 0.6873
vn -0.0000 -0.7264 -0.6873
vn -0.6848 -0.7288 -0.0000
vn 0.6832 0.7303 0.0000
vn 0.6848 -0.7288 -0.0000
vn 0.4036 0.9149 0.0000
vn 0.0000 0.9415 0.3371
vn 0.0000 0.7301 0.6834
vn 0.0000 0.9415 0.3370
vn 0.4040 0.9148 0.0000
vn 0.0000 0.9415 0.3369
vn 0.4033 0.9151 0.0000
vn 0.6292 0.7772 0.0000
vn -0.6223 -0.7828 -0.0000
vn -0.6222 -0.7828 -0.0000
vn 0.6222 -0.7828 -0.0000
vn 0.6857 0.7279 0.0000
vn 0.0000 0.9414 0.3374
vn -0.0000 -0.9965 0.0841
vn -0.0000 -0.9965 -0.0841
vn 0.1024 -0.9947 -0.0000
vn -0.1024 -0.9947 -0.0000
vn -0.0000 -0.9964 0.0847
vn -0.0000 -0.9964 -0.0847
vn 0.1035 -0.9946 -0.0000
vn -0.1035 -0.9946 -0.0000
vn -0.0000 -0.9964 0.0852
vn -0.0000 -0.9964 -0.0852
vn 0.1041 -0.9946 -0.0000
vn -0.1041 -0.9946 -0.0000
vn 0.1048 -0.9945 -0.0000
vn -0.1048 -0.9945 -0.0000
vn 0.0000 -0.9963 0.0857
vn -0.0000 -0.9963 -0.0857
vn 0.1056 -0.9944 -0.0000
vn -0.1056 -0.9944 -0.0000
vn -0.0000 -0.9965 0.0833
vn -0.0000 -0.9965 -0.0833
usemtl Shape_150
s 1
f 119/1/1 120/2/1 121/3/1
f 120/2/1 122/4/1 121/3/1
f 123/5/1 124/6/1 125/7/1
f 124/6/1 126/8/1 125/7/1
f 127/9/2 128/10/2 119/11/2
f 128/10/2 120/12/2 119/11/2
f 129/13/2 130/14/2 123/15/2
f 130/14/2 124/16/2 123/15/2
f 131/17/1 132/18/1 133/19/1
f 132/18/1 134/20/1 133/19/1
f 135/21/2 136/22/2 137/23/2
f 136/22/2 138/24/2 137/23/2
f 139/25/1 140/26/1 141/27/1
f 140/26/1 142/28/1 141/27/1
f 143/29/1 144/30/1 145/31/1
f 144/30/1 146/32/1 145/31/1
f 147/33/1 148/34/1 149/35/1
f 148/34/1 150/36/1 149/35/1
f 149/37/3 150/38/3 151/39/3
f 150/38/3 152/40/3 151/39/3
f 153/41/2 154/42/2 147/43/2
f 154/42/2 148/44/2 147/43/2
f 155/45/2 156/46/2 139/47/2
f 156/46/2 140/48/2 139/47/2
f 137/49/1 138/50/1 157/51/1
f 138/50/1 158/52/1 157/51/1
f 159/53/4 160/54/4 135/55/4
f 160/54/4 136/56/4 135/55/4
f 161/57/2 162/58/2 143/59/2
f 162/58/2 144/60/2 143/59/2
f 133/61/3 134/62/3 163/63/3
f 134/62/3 164/64/3 163/63/3
f 165/65/2 166/66/2 131/67/2
f 166/66/2 132/68/2 131/67/2
usemtl Shape_144
f 26/69/5 27/70/5 28/71/5
f 29/72/1 28/71/1 27/70/1
f 30/73/2 31/74/2 26/75/2
f 31/74/6 27/76/6 26/75/6
f 27/76/7 31/74/7 29/77/7
f 31/74/2 32/78/2 29/77/2
f 28/79/8 31/74/8 26/75/8
f 31/74/9 28/79/9 29/77/9
usemtl Shape_142
f 33/80/1 34/81/1 35/82/1
f 34/81/1 36/83/1 35/82/1
f 37/84/1 38/85/1 36/86/1
f 38/85/1 35/87/1 36/86/1
f 39/88/2 40/89/2 41/90/2
f 42/91/1 43/92/1 44/93/1
f 40/94/2 45/95/2 46/96/2
f 47/97/2 39/88/2 41/90/2
f 48/98/2 46/99/2 45/100/2
f 41/101/2 40/94/2 46/96/2
f 49/102/1 50/103/1 51/104/1
f 52/105/2 48/98/2 45/100/2
f 50/106/1 53/107/1 54/108/1
f 55/109/1 49/102/1 51/104/1
f 51/110/1 50/106/1 54/108/1
f 56/111/1 57/112/1 53/113/1
f 57/112/1 54/114/1 53/113/1
f 58/115/1 59/116/1 60/117/1
f 59/116/1 61/118/1 60/117/1
f 62/119/2 63/120/2 64/121/2
f 63/120/2 65/122/2 64/121/2
f 66/123/1 67/124/1 68/125/1
f 67/124/1 69/126/1 68/125/1
f 70/127/1 71/128/1 69/129/1
f 71/128/1 68/130/1 69/129/1
f 70/131/1 72/132/1 73/133/1
f 74/134/1 75/135/1 76/136/1
f 77/137/1 73/138/1 72/139/1
f 78/140/1 70/131/1 73/133/1
f 79/141/1 77/137/1 72/139/1
f 80/142/2 81/143/2 82/144/2
f 83/145/1 84/146/1 85/147/1
f 86/148/2 82/149/2 81/150/2
f 87/151/2 80/142/2 82/144/2
f 88/152/2 89/153/2 90/154/2
f 91/155/2 86/148/2 81/150/2
f 92/156/2 93/157/2 94/158/2
f 93/157/2 95/159/2 94/158/2
f 96/160/2 97/161/2 95/162/2
f 97/161/2 94/163/2 95/162/2
f 98/164/1 99/165/1 100/166/1
f 101/167/2 102/168/2 103/169/2
f 104/170/1 100/171/1 99/172/1
f 105/173/1 98/164/1 100/166/1
f 106/174/1 107/175/1 108/176/1
f 109/177/1 104/170/1 99/172/1
f 110/178/2 111/179/2 112/180/2
f 111/179/2 113/181/2 112/180/2
f 114/182/2 115/183/2 113/184/2
f 115/183/2 112/185/2 113/184/2
f 116/186/2 117/187/2 118/188/2
usemtl Shape_145
f 167/189/10 41/190/10 168/191/10
f 41/190/10 46/192/10 168/191/10
f 169/193/11 52/194/11 170/195/11
f 52/194/11 45/196/11 170/195/11
f 171/197/12 47/198/12 167/189/12
f 47/198/12 41/190/12 167/189/12
f 40/199/5 172/200/5 45/196/5
f 172/200/5 170/195/5 45/196/5
f 39/201/13 173/202/13 40/199/13
f 173/202/13 172/200/13 40/199/13
f 6/203/14 174/204/14 10/205/14
f 21/206/15 25/207/15 175/208/15
f 68/209/16 176/210/16 66/211/16
f 176/210/16 177/212/16 66/211/16
f 69/213/17 67/214/17 178/215/17
f 67/214/17 179/216/17 178/215/17
f 176/210/18 68/209/18 180/217/18
f 68/209/18 71/218/18 180/217/18
f 73/219/16 181/220/16 78/221/16
f 181/220/16 182/222/16 78/221/16
f 72/223/17 70/224/17 183/225/17
f 70/224/17 184/226/17 183/225/17
f 181/220/18 73/219/18 185/227/18
f 73/219/18 77/228/18 185/227/18
f 91/229/19 81/230/19 186/231/19
f 81/230/19 187/232/19 186/231/19
f 82/233/20 188/234/20 87/235/20
f 188/234/20 189/236/20 87/235/20
f 188/234/21 82/233/21 190/237/21
f 82/233/21 86/238/21 190/237/21
f 100/239/22 191/240/22 105/241/22
f 191/240/22 192/242/22 105/241/22
f 99/243/23 98/244/23 193/245/23
f 98/244/23 194/246/23 193/245/23
f 191/240/24 100/239/24 195/247/24
f 100/239/24 104/248/24 195/247/24
f 6/249/25 8/250/25 174/251/25
f 1/252/26 196/253/26 2/254/26
f 96/255/19 95/256/19 197/257/19
f 95/256/19 198/258/19 197/257/19
f 94/259/20 199/260/20 92/261/20
f 199/260/20 200/262/20 92/261/20
f 199/260/21 94/259/21 201/263/21
f 94/259/21 97/264/21 201/263/21
f 114/265/27 113/266/27 202/267/27
f 113/266/27 203/268/27 202/267/27
f 112/269/20 204/270/20 110/271/20
f 204/270/20 205/272/20 110/271/20
f 204/270/21 112/269/21 206/273/21
f 112/269/21 115/274/21 206/273/21
f 11/275/28 207/276/28 12/277/28
f 1/278/29 5/279/29 196/280/29
f 16/281/30 208/282/30 17/283/30
f 11/284/31 15/285/31 207/286/31
f 16/287/25 20/288/25 208/289/25
f 209/290/10 51/291/10 210/292/10
f 51/291/10 54/293/10 210/292/10
f 57/294/32 211/295/32 54/293/32
f 211/295/32 210/292/32 54/293/32
f 212/296/33 56/297/33 213/298/33
f 56/297/34 53/299/34 213/298/34
f 50/300/5 214/301/5 53/299/5
f 214/301/5 213/298/5 53/299/5
f 49/302/35 215/303/35 50/300/35
f 215/303/35 214/301/35 50/300/35
f 35/304/22 216/305/22 33/306/22
f 216/305/22 217/307/22 33/306/22
f 36/308/36 34/309/36 218/310/36
f 34/309/36 219/311/36 218/310/36
f 216/305/24 35/304/24 220/312/24
f 35/304/24 38/313/24 220/312/24
f 21/314/37 175/315/37 22/316/37
usemtl Shape_146
f 1/317/38 2/318/38 3/319/38
f 4/320/39 5/321/39 3/319/39
f 6/322/40 7/323/40 8/324/40
f 9/325/41 7/323/41 10/326/41
f 11/327/42 12/328/42 13/329/42
f 14/330/43 15/331/43 13/329/43
f 1/332/44 3/333/44 5/334/44
f 4/320/45 3/333/45 2/335/45
f 16/336/46 17/337/46 18/338/46
f 19/339/47 20/340/47 18/338/47
f 11/341/48 13/342/48 15/343/48
f 14/330/49 13/342/49 12/344/49
f 16/345/50 18/346/50 20/347/50
f 19/339/51 18/346/51 17/348/51
f 21/349/52 22/350/52 23/351/52
f 24/352/53 25/353/53 23/351/53
f 21/354/54 23/355/54 25/356/54
f 24/352/55 23/355/55 22/357/55
f 6/358/56 10/359/56 7/360/56
f 9/325/57 8/361/57 7/360/57
